<svg version="1.1" x="0" y="0" xml:space="preserve" id="svg37" width="337.62" height="310.97" xmlns="http://www.w3.org/2000/svg"><style type="text/css" id="style2">.st3{fill:#e24329}.st4{fill:#fca326}.st5{fill:#fc6d26}.st15{opacity:.1;fill:#e828e3}.st15,.st16{display:inline}.st18{font-family:&apos;SourceSansPro-Semibold&apos;}.st19{font-size:24px}</style><g id="logo_art" transform="translate(-124.23 -124.02)"><g id="g13"><path id="path50_2_" class="st3" d="M293.03 434.98l62.2-191.32H230.92z"/><path id="path66_6_" class="st4" d="M143.8 243.66l-18.94 58.13a12.88 12.88 0 004.66 14.4l163.5 118.8z"/><path id="path74_2_" class="st3" d="M143.8 243.66h87.12l-37.5-115.22c-1.91-5.9-10.28-5.9-12.27 0z"/><path id="path82_6_" class="st4" d="M442.35 243.66l18.87 58.13a12.88 12.88 0 01-4.66 14.4l-163.53 118.8z"/><path id="path86_2_" class="st3" d="M442.35 243.66h-87.12l37.42-115.22c1.92-5.9 10.28-5.9 12.27 0z"/><path class="st5" id="polygon9" d="M442.35 243.66L293.03 434.98l62.2-191.32z"/><path class="st5" id="polygon11" d="M230.92 243.66l62.1 191.32L143.8 243.66z"/></g></g></svg>